<?xml version="1.0" encoding="UTF-8"?>
<!DOCTYPE svg PUBLIC "-//W3C//DTD SVG 1.1//EN" "http://www.w3.org/Graphics/SVG/1.1/DTD/svg11.dtd">
<svg xmlns="http://www.w3.org/2000/svg" version="1.1" width="1200px" height="215px" style="shape-rendering:geometricPrecision; text-rendering:geometricPrecision; image-rendering:optimizeQuality; fill-rule:evenodd; clip-rule:evenodd" xmlns:xlink="http://www.w3.org/1999/xlink">
<g><path style="opacity:0.746" fill="#004b8e" d="M 84.5,4.5 C 89.3241,5.98058 89.6575,8.14725 85.5,11C 86.8721,11.4017 88.2054,11.9017 89.5,12.5C 90.6956,12.1543 90.6956,11.6543 89.5,11C 91.1667,10.3333 92.8333,10.3333 94.5,11C 94.5012,12.3988 94.8346,13.8988 95.5,15.5C 101.603,16.223 104.27,19.723 103.5,26C 102.654,30.1964 101.654,34.3631 100.5,38.5C 99.5,38.5 98.5,38.5 97.5,38.5C 97.6567,37.1266 97.49,35.7932 97,34.5C 96.7931,45.3544 91.2931,49.5211 80.5,47C 75.3921,44.9618 73.2255,41.1284 74,35.5C 73.1667,36.5 72.3333,37.5 71.5,38.5C 67.0346,31.7689 66.2013,24.7689 69,17.5C 70.6667,16.1667 72.3333,16.1667 74,17.5C 75.0803,15.4465 75.9136,13.2798 76.5,11C 78.9757,10.3198 80.809,11.1531 82,13.5C 82.5,12.3333 83.3333,11.5 84.5,11C 80.5611,8.6809 80.5611,6.51424 84.5,4.5 Z M 81.5,14.5 C 84.7473,15.2515 88.0806,15.7515 91.5,16C 88.2328,15.9369 86.0661,17.4369 85,20.5C 84.1548,17.5878 82.4882,16.5878 80,17.5C 79.7613,16.212 80.2613,15.212 81.5,14.5 Z M 79.5,26.5 C 81.1992,26.3398 82.8659,26.5065 84.5,27C 82.4106,28.5721 82.4106,30.4055 84.5,32.5C 82.9547,33.4519 81.288,33.7852 79.5,33.5C 79.5,31.1667 79.5,28.8333 79.5,26.5 Z M 86.5,27.5 C 87.9187,26.5489 89.5853,26.2155 91.5,26.5C 91.5,28.8333 91.5,31.1667 91.5,33.5C 86.5942,34.0459 85.5942,32.5459 88.5,29C 87.9558,28.2828 87.2891,27.7828 86.5,27.5 Z M 83.5,36.5 C 84.172,35.7326 85.0053,35.0659 86,34.5C 86.1881,36.0613 85.3547,36.728 83.5,36.5 Z M 83.5,36.5 C 81.9857,38.806 82.6524,40.1393 85.5,40.5C 87.7214,39.884 88.3881,38.7173 87.5,37C 91.4697,34.8053 92.4697,35.9719 90.5,40.5C 87.3259,42.9694 83.9926,43.136 80.5,41C 79.6198,39.6439 79.2865,38.1439 79.5,36.5C 80.8333,36.5 82.1667,36.5 83.5,36.5 Z M 86.5,43.5 C 87.2891,43.7828 87.9558,44.2828 88.5,45C 87.184,45.5281 86.5173,45.0281 86.5,43.5 Z"/></g>
<g><path style="opacity:0.937" fill="#d52631" d="M 705.5,6.5 C 710.833,6.5 716.167,6.5 721.5,6.5C 721.5,17.1667 721.5,27.8333 721.5,38.5C 716.167,38.5 710.833,38.5 705.5,38.5C 705.318,29.8155 700.818,25.1489 692,24.5C 682.876,25.7663 679.542,30.7663 682,39.5C 683.046,41.0905 684.213,42.5905 685.5,44C 704.079,54.9086 721.246,67.742 737,82.5C 753.591,102.958 755.924,124.958 744,148.5C 729.461,167.937 710.295,174.77 686.5,169C 660.917,160.005 650.751,142.172 656,115.5C 660.133,102.867 668.633,94.8669 681.5,91.5C 682.833,97.1667 682.833,102.833 681.5,108.5C 670.883,114.576 667.383,123.576 671,135.5C 679.332,152.578 692.832,158.745 711.5,154C 729.382,147.412 737.549,134.579 736,115.5C 732.372,101.748 724.872,90.5814 713.5,82C 701.339,73.4191 689.006,65.0857 676.5,57C 664.549,46.2383 662.383,33.7383 670,19.5C 680.051,9.39985 691.885,6.73318 705.5,11.5C 705.5,9.83333 705.5,8.16667 705.5,6.5 Z"/></g>
<g><path style="opacity:0.892" fill="#004b8e" d="M 110.5,20.5 C 112.924,20.1924 115.257,20.5258 117.5,21.5C 118.58,23.9962 119.914,26.3295 121.5,28.5C 123.086,26.3295 124.42,23.9962 125.5,21.5C 127.743,20.5258 130.076,20.1924 132.5,20.5C 132.5,26.8333 132.5,33.1667 132.5,39.5C 130.833,39.5 129.167,39.5 127.5,39.5C 127.665,36.1501 127.498,32.8168 127,29.5C 123.838,38.2744 120.171,38.6077 116,30.5C 115.502,33.4816 115.335,36.4816 115.5,39.5C 113.833,39.5 112.167,39.5 110.5,39.5C 110.5,33.1667 110.5,26.8333 110.5,20.5 Z"/></g>
<g><path style="opacity:0.863" fill="#004b8e" d="M 135.5,20.5 C 137.167,20.5 138.833,20.5 140.5,20.5C 140.334,24.8461 140.501,29.1794 141,33.5C 143,36.1667 145,36.1667 147,33.5C 147.499,29.1794 147.666,24.8461 147.5,20.5C 149.5,20.5 151.5,20.5 153.5,20.5C 153.666,25.1785 153.499,29.8452 153,34.5C 151.522,38.4796 148.688,40.1462 144.5,39.5C 141.139,39.8881 138.306,38.8881 136,36.5C 135.501,31.1771 135.334,25.8437 135.5,20.5 Z"/></g>
<g><path style="opacity:0.874" fill="#004b8e" d="M 155.5,20.5 C 157.604,20.2011 159.604,20.5344 161.5,21.5C 163.427,24.35 165.594,27.0167 168,29.5C 168.498,26.5184 168.665,23.5184 168.5,20.5C 170.167,20.5 171.833,20.5 173.5,20.5C 173.5,26.8333 173.5,33.1667 173.5,39.5C 171.473,39.6621 169.473,39.4955 167.5,39C 165.333,36.1667 163.167,33.3333 161,30.5C 160.502,33.4816 160.335,36.4816 160.5,39.5C 158.833,39.5 157.167,39.5 155.5,39.5C 155.5,33.1667 155.5,26.8333 155.5,20.5 Z"/></g>
<g><path style="opacity:0.948" fill="#004b8e" d="M 176.5,20.5 C 178.167,20.5 179.833,20.5 181.5,20.5C 181.5,26.8333 181.5,33.1667 181.5,39.5C 179.833,39.5 178.167,39.5 176.5,39.5C 176.5,33.1667 176.5,26.8333 176.5,20.5 Z"/></g>
<g><path style="opacity:0.801" fill="#004b8e" d="M 188.5,20.5 C 192.571,20.2338 196.571,20.5672 200.5,21.5C 201.731,22.6507 201.731,23.8173 200.5,25C 197.833,25 195.167,25 192.5,25C 188.5,28.3333 188.5,31.6667 192.5,35C 195.167,35 197.833,35 200.5,35C 201.731,36.1827 201.731,37.3493 200.5,38.5C 188.025,42.5439 182.525,38.2105 184,25.5C 185.025,23.313 186.525,21.6464 188.5,20.5 Z"/></g>
<g><path style="opacity:0.829" fill="#004b8e" d="M 202.5,20.5 C 204.5,20.5 206.5,20.5 208.5,20.5C 208.5,26.8333 208.5,33.1667 208.5,39.5C 206.5,39.5 204.5,39.5 202.5,39.5C 202.5,33.1667 202.5,26.8333 202.5,20.5 Z"/></g>
<g><path style="opacity:0.846" fill="#004b8e" d="M 227.5,30.5 C 224.332,33.0561 220.666,34.0561 216.5,33.5C 216.5,35.5 216.5,37.5 216.5,39.5C 214.5,39.5 212.5,39.5 210.5,39.5C 210.5,33.1667 210.5,26.8333 210.5,20.5C 215.628,20.1115 220.628,20.6115 225.5,22C 227.314,24.4815 227.98,27.3148 227.5,30.5 Z M 216.5,24.5 C 224.3,26.2748 224.3,27.6081 216.5,28.5C 216.5,27.1667 216.5,25.8333 216.5,24.5 Z"/></g>
<g><path style="opacity:0.818" fill="#004b8e" d="M 227.5,30.5 C 228.81,27.6015 230.143,24.6015 231.5,21.5C 233.765,20.3526 236.098,20.1859 238.5,21C 240.796,26.429 242.963,31.929 245,37.5C 245.499,31.8431 245.666,26.1764 245.5,20.5C 247.5,20.5 249.5,20.5 251.5,20.5C 251.5,25.5 251.5,30.5 251.5,35.5C 254.833,35.5 258.167,35.5 261.5,35.5C 261.5,30.5 261.5,25.5 261.5,20.5C 263.5,20.5 265.5,20.5 267.5,20.5C 267.5,26.8333 267.5,33.1667 267.5,39.5C 258.161,39.6665 248.827,39.4998 239.5,39C 237.836,35.8638 235.169,34.6971 231.5,35.5C 231.67,36.8221 231.337,37.9887 230.5,39C 228.5,39.6667 226.5,39.6667 224.5,39C 225.798,36.2731 226.798,33.4398 227.5,30.5 Z M 234.5,26.5 C 235.339,27.6412 236.006,28.9745 236.5,30.5C 235.5,31.8333 234.5,31.8333 233.5,30.5C 234.246,29.2638 234.579,27.9305 234.5,26.5 Z"/></g>
<g><path style="opacity:0.821" fill="#004b8e" d="M 269.5,20.5 C 273.846,20.3343 278.179,20.501 282.5,21C 286.485,22.6266 288.485,25.6266 288.5,30C 288.485,34.3734 286.485,37.3734 282.5,39C 278.179,39.499 273.846,39.6657 269.5,39.5C 269.5,33.1667 269.5,26.8333 269.5,20.5 Z M 275.5,24.5 C 281.733,24.6265 283.733,27.6265 281.5,33.5C 279.696,34.7681 277.696,35.4348 275.5,35.5C 275.5,31.8333 275.5,28.1667 275.5,24.5 Z"/></g>
<g><path style="opacity:0.829" fill="#004b8e" d="M 293.5,20.5 C 296.167,20.5 298.833,20.5 301.5,20.5C 303.5,26.8333 305.5,33.1667 307.5,39.5C 305.396,39.7989 303.396,39.4656 301.5,38.5C 299.927,35.807 297.593,34.9737 294.5,36C 293.663,37.0113 293.33,38.1779 293.5,39.5C 291.5,39.5 289.5,39.5 287.5,39.5C 289.5,33.1667 291.5,26.8333 293.5,20.5 Z M 296.5,27.5 C 298.104,28.287 298.771,29.6203 298.5,31.5C 297.448,31.6495 296.448,31.4828 295.5,31C 296.337,29.9887 296.67,28.8221 296.5,27.5 Z"/></g>
<g><path style="opacity:0.83" fill="#004b8e" d="M 308.5,20.5 C 312.846,20.3343 317.179,20.501 321.5,21C 325.48,22.4783 327.146,25.3116 326.5,29.5C 326.888,32.8608 325.888,35.6941 323.5,38C 318.599,39.3254 313.599,39.8254 308.5,39.5C 308.5,33.1667 308.5,26.8333 308.5,20.5 Z M 314.5,24.5 C 320.644,25.4684 322.311,28.635 319.5,34C 318.128,34.4017 316.795,34.9017 315.5,35.5C 314.511,31.8927 314.177,28.226 314.5,24.5 Z"/></g>
<g><path style="opacity:0.824" fill="#004b8e" d="M 334.5,20.5 C 338.846,20.3343 343.179,20.501 347.5,21C 354.543,25.8885 355.21,31.5552 349.5,38C 344.628,39.3885 339.628,39.8885 334.5,39.5C 334.5,33.1667 334.5,26.8333 334.5,20.5 Z M 340.5,24.5 C 347.358,25.1549 349.025,28.3216 345.5,34C 343.975,35.0086 342.308,35.5086 340.5,35.5C 340.5,31.8333 340.5,28.1667 340.5,24.5 Z"/></g>
<g><path style="opacity:0.849" fill="#004b8e" d="M 354.5,20.5 C 359.833,20.5 365.167,20.5 370.5,20.5C 370.5,21.8333 370.5,23.1667 370.5,24.5C 367.167,24.5 363.833,24.5 360.5,24.5C 360.5,25.5 360.5,26.5 360.5,27.5C 363.167,27.5 365.833,27.5 368.5,27.5C 368.5,28.8333 368.5,30.1667 368.5,31.5C 365.833,31.5 363.167,31.5 360.5,31.5C 360.5,32.8333 360.5,34.1667 360.5,35.5C 363.833,35.5 367.167,35.5 370.5,35.5C 370.5,36.8333 370.5,38.1667 370.5,39.5C 365.167,39.5 359.833,39.5 354.5,39.5C 354.5,33.1667 354.5,26.8333 354.5,20.5 Z"/></g>
<g><path style="opacity:0.816" fill="#004b8e" d="M 377.5,20.5 C 379.5,20.5 381.5,20.5 383.5,20.5C 383.5,25.5 383.5,30.5 383.5,35.5C 386.5,35.5 389.5,35.5 392.5,35.5C 392.5,36.8333 392.5,38.1667 392.5,39.5C 387.5,39.5 382.5,39.5 377.5,39.5C 377.5,33.1667 377.5,26.8333 377.5,20.5 Z"/></g>
<g><path style="opacity:0.829" fill="#004b8e" d="M 393.5,20.5 C 395.5,20.5 397.5,20.5 399.5,20.5C 399.5,26.8333 399.5,33.1667 399.5,39.5C 397.5,39.5 395.5,39.5 393.5,39.5C 393.5,33.1667 393.5,26.8333 393.5,20.5 Z"/></g>
<g><path style="opacity:0.818" fill="#004b8e" d="M 401.5,20.5 C 404.247,20.1866 406.914,20.52 409.5,21.5C 410.667,23.8333 411.833,26.1667 413,28.5C 414.626,26.0829 416.126,23.5829 417.5,21C 419.81,20.5034 422.143,20.3367 424.5,20.5C 424.5,26.8333 424.5,33.1667 424.5,39.5C 422.5,39.5 420.5,39.5 418.5,39.5C 418.664,36.8127 418.497,34.146 418,31.5C 414.536,38.1319 411.202,38.1319 408,31.5C 407.503,34.146 407.336,36.8127 407.5,39.5C 405.5,39.5 403.5,39.5 401.5,39.5C 401.5,33.1667 401.5,26.8333 401.5,20.5 Z"/></g>
<g><path style="opacity:0.817" fill="#004b8e" d="M 431.5,20.5 C 434.167,20.5 436.833,20.5 439.5,20.5C 441.5,26.8333 443.5,33.1667 445.5,39.5C 443.396,39.7989 441.396,39.4656 439.5,38.5C 436.833,34.5 434.167,34.5 431.5,38.5C 429.604,39.4656 427.604,39.7989 425.5,39.5C 427.5,33.1667 429.5,26.8333 431.5,20.5 Z M 434.5,28.5 C 436.048,28.8212 436.715,29.8212 436.5,31.5C 435.448,31.6495 434.448,31.4828 433.5,31C 434.252,30.3292 434.586,29.4959 434.5,28.5 Z"/></g>
<g><path style="opacity:0.856" fill="#004b8e" d="M 851.5,41.5 C 855.555,41.1758 859.555,41.5091 863.5,42.5C 861.416,46.3359 859.083,50.0026 856.5,53.5C 853.554,54.6548 850.554,54.8214 847.5,54C 848.936,49.858 850.27,45.6913 851.5,41.5 Z"/></g>
<g><path style="opacity:0.922" fill="#004b8e" d="M 778.5,58.5 C 788.884,56.2845 796.717,59.6178 802,68.5C 802.813,70.4357 803.313,72.4357 803.5,74.5C 799.154,74.6657 794.821,74.499 790.5,74C 787.645,68.824 784.145,68.324 780,72.5C 777.605,80.5814 778.105,88.4147 781.5,96C 785.526,97.3366 788.526,96.1699 790.5,92.5C 794.783,91.5078 799.116,91.1744 803.5,91.5C 801.153,104.992 793.153,110.492 779.5,108C 770.802,105.449 766.302,99.6159 766,90.5C 764.876,81.888 765.876,73.5547 769,65.5C 771.825,62.524 774.992,60.1907 778.5,58.5 Z"/></g>
<g><path style="opacity:0.921" fill="#004b8e" d="M 808.5,58.5 C 812.833,58.5 817.167,58.5 821.5,58.5C 821.5,71.1667 821.5,83.8333 821.5,96.5C 828.167,96.5 834.833,96.5 841.5,96.5C 841.5,100.5 841.5,104.5 841.5,108.5C 830.5,108.5 819.5,108.5 808.5,108.5C 808.5,91.8333 808.5,75.1667 808.5,58.5 Z"/></g>
<g><path style="opacity:0.919" fill="#004b8e" d="M 845.5,58.5 C 849.833,58.5 854.167,58.5 858.5,58.5C 858.5,75.1667 858.5,91.8333 858.5,108.5C 854.167,108.5 849.833,108.5 845.5,108.5C 845.5,91.8333 845.5,75.1667 845.5,58.5 Z"/></g>
<g><path style="opacity:0.922" fill="#004b8e" d="M 866.5,58.5 C 870.182,58.3347 873.848,58.5014 877.5,59C 882.458,66.415 887.291,73.915 892,81.5C 892.5,73.8406 892.666,66.1739 892.5,58.5C 896.833,58.5 901.167,58.5 905.5,58.5C 905.5,75.1667 905.5,91.8333 905.5,108.5C 901.445,108.824 897.445,108.491 893.5,107.5C 889,100.5 884.5,93.5 880,86.5C 879.5,93.8258 879.334,101.159 879.5,108.5C 875.167,108.5 870.833,108.5 866.5,108.5C 866.5,91.8333 866.5,75.1667 866.5,58.5 Z"/></g>
<g><path style="opacity:0.919" fill="#004b8e" d="M 912.5,58.5 C 916.833,58.5 921.167,58.5 925.5,58.5C 925.5,75.1667 925.5,91.8333 925.5,108.5C 921.167,108.5 916.833,108.5 912.5,108.5C 912.5,91.8333 912.5,75.1667 912.5,58.5 Z"/></g>
<g><path style="opacity:0.921" fill="#004b8e" d="M 943.5,58.5 C 950.255,57.6681 956.589,58.8348 962.5,62C 965.976,65.4524 967.976,69.6191 968.5,74.5C 964.154,74.6657 959.821,74.499 955.5,74C 952.645,68.824 949.145,68.324 945,72.5C 943.054,79.5093 943.054,86.5093 945,93.5C 948.861,97.6987 952.361,97.3653 955.5,92.5C 959.783,91.5078 964.116,91.1744 968.5,91.5C 966.153,104.992 958.153,110.492 944.5,108C 935.802,105.449 931.302,99.6159 931,90.5C 929.876,81.888 930.876,73.5547 934,65.5C 936.825,62.524 939.992,60.1907 943.5,58.5 Z"/></g>
<g><path style="opacity:0.919" fill="#004b8e" d="M 985.5,58.5 C 988.898,58.1796 992.232,58.513 995.5,59.5C 1001.78,75.6607 1007.44,91.994 1012.5,108.5C 1008.12,108.826 1003.78,108.492 999.5,107.5C 998.423,105.271 997.756,102.937 997.5,100.5C 992.786,100.173 988.12,100.507 983.5,101.5C 982.423,103.729 981.756,106.063 981.5,108.5C 976.833,108.5 972.167,108.5 967.5,108.5C 972.939,91.624 978.939,74.9573 985.5,58.5 Z M 990.5,80.5 C 991.484,83.0513 992.484,85.7179 993.5,88.5C 991.5,89.8333 989.5,89.8333 987.5,88.5C 988.508,85.8048 989.508,83.1381 990.5,80.5 Z"/></g>
<g><path style="opacity:0.931" fill="#e10612" d="M 56.5,59.5 C 60.5,59.5 64.5,59.5 68.5,59.5C 68.593,65.8627 68.2597,72.1961 67.5,78.5C 72.8333,78.5 78.1667,78.5 83.5,78.5C 83.407,72.1373 83.7403,65.8039 84.5,59.5C 88.5,59.5 92.5,59.5 96.5,59.5C 95.7166,75.821 95.3832,92.1544 95.5,108.5C 91.5,108.5 87.5,108.5 83.5,108.5C 83.5,101.833 83.5,95.1667 83.5,88.5C 78.1667,88.5 72.8333,88.5 67.5,88.5C 67.5,95.1667 67.5,101.833 67.5,108.5C 63.5,108.5 59.5,108.5 55.5,108.5C 55.2783,92.1478 55.6116,75.8145 56.5,59.5 Z"/></g>
<g><path style="opacity:0.827" fill="#e10612" d="M 211.5,59.5 C 214.649,59.2114 217.649,59.7114 220.5,61C 223.03,66.6355 221.196,69.4688 215,69.5C 211.222,69.8668 209.056,68.2001 208.5,64.5C 208.757,62.3076 209.757,60.6409 211.5,59.5 Z"/></g>
<g><path style="opacity:0.906" fill="#e10612" d="M 283.5,59.5 C 287.167,59.5 290.833,59.5 294.5,59.5C 294.499,72.8564 294.332,86.1897 294,99.5C 295.356,100.38 296.856,100.714 298.5,100.5C 298.777,103.448 298.444,106.281 297.5,109C 294.167,109.667 290.833,109.667 287.5,109C 285.333,108.167 283.833,106.667 283,104.5C 282.966,89.5052 283.133,74.5052 283.5,59.5 Z"/></g>
<g><path style="opacity:0.916" fill="#e10612" d="M 338.5,59.5 C 342.5,59.5 346.5,59.5 350.5,59.5C 349.713,75.1353 349.213,90.802 349,106.5C 345.851,108.362 342.351,109.029 338.5,108.5C 338.557,104.867 337.557,104.7 335.5,108C 321.581,111.595 314.914,106.095 315.5,91.5C 315.262,85.3834 316.929,79.8834 320.5,75C 326.275,70.6455 332.109,70.4788 338,74.5C 338.499,69.5111 338.666,64.5111 338.5,59.5 Z M 332.5,80.5 C 334.582,80.472 336.416,81.1387 338,82.5C 338.667,87.8333 338.667,93.1667 338,98.5C 330.572,101.855 327.072,99.355 327.5,91C 326.929,86.3121 328.596,82.8121 332.5,80.5 Z"/></g>
<g><path style="opacity:0.907" fill="#e10612" d="M 407.5,59.5 C 411.167,59.5 414.833,59.5 418.5,59.5C 418.823,72.7461 418.489,85.9128 417.5,99C 418.905,100.269 420.571,100.769 422.5,100.5C 422.777,103.448 422.444,106.281 421.5,109C 411.157,111.848 406.157,108.015 406.5,97.5C 407.375,84.849 407.708,72.1823 407.5,59.5 Z"/></g>
<g><path style="opacity:0.925" fill="#e10612" d="M 227.5,62.5 C 231.167,62.5 234.833,62.5 238.5,62.5C 238.5,65.8333 238.5,69.1667 238.5,72.5C 240.5,72.5 242.5,72.5 244.5,72.5C 244.5,75.1667 244.5,77.8333 244.5,80.5C 242.5,80.5 240.5,80.5 238.5,80.5C 237.461,86.7967 237.294,93.1301 238,99.5C 239.699,100.406 241.533,100.739 243.5,100.5C 243.777,103.448 243.444,106.281 242.5,109C 238.833,109.667 235.167,109.667 231.5,109C 230.069,108.535 228.903,107.701 228,106.5C 226.559,97.9422 226.059,89.2756 226.5,80.5C 225.127,80.6567 223.793,80.49 222.5,80C 223.435,77.6194 223.768,75.1194 223.5,72.5C 224.833,72.5 226.167,72.5 227.5,72.5C 227.5,69.1667 227.5,65.8333 227.5,62.5 Z"/></g>
<g><path style="opacity:0.913" fill="#e10612" d="M 112.5,71.5 C 130.666,70.7675 137.833,79.4341 134,97.5C 131.315,106.009 125.482,110.009 116.5,109.5C 105.182,108.678 99.5155,102.511 99.5,91C 99.5133,81.4387 103.847,74.9387 112.5,71.5 Z M 116.5,79.5 C 121.756,80.8611 124.089,84.3611 123.5,90C 123.212,93.3185 122.379,96.4852 121,99.5C 118.456,102.08 115.956,102.08 113.5,99.5C 111.011,93.9324 110.844,88.2657 113,82.5C 114.145,81.3636 115.312,80.3636 116.5,79.5 Z"/></g>
<g><path style="opacity:0.9" fill="#e10612" d="M 148.5,71.5 C 155.027,71.0704 161.36,71.9037 167.5,74C 167.066,76.9008 165.899,79.4008 164,81.5C 161.222,80.5972 158.389,79.9306 155.5,79.5C 151.638,79.1969 150.305,80.6969 151.5,84C 156.229,85.782 160.729,87.9486 165,90.5C 169.678,100.135 166.845,106.302 156.5,109C 149.849,109.894 143.349,109.394 137,107.5C 137.083,104.881 137.25,102.214 137.5,99.5C 141.337,100.083 145.17,100.75 149,101.5C 151.617,101.873 153.45,100.873 154.5,98.5C 150.027,95.7617 145.36,93.2617 140.5,91C 135.027,81.1172 137.693,74.6172 148.5,71.5 Z"/></g>
<g><path style="opacity:0.919" fill="#e10612" d="M 187.5,71.5 C 199.934,71.1029 205.934,77.2696 205.5,90C 205.363,96.6026 203.03,102.269 198.5,107C 192.877,110.442 187.377,110.275 182,106.5C 181.501,111.489 181.334,116.489 181.5,121.5C 177.833,121.5 174.167,121.5 170.5,121.5C 170.756,105.165 171.09,88.8314 171.5,72.5C 174.85,72.335 178.183,72.5017 181.5,73C 182,73.5 182.5,74 183,74.5C 184.652,73.6006 186.152,72.6006 187.5,71.5 Z M 185.5,80.5 C 191.185,81.0242 193.851,84.1909 193.5,90C 193.702,95.1168 191.536,98.6168 187,100.5C 185.527,100.097 184.194,99.4303 183,98.5C 182.333,93.1667 182.333,87.8333 183,82.5C 183.995,81.9341 184.828,81.2674 185.5,80.5 Z"/></g>
<g><path style="opacity:0.906" fill="#e10612" d="M 257.5,71.5 C 261.182,71.3347 264.848,71.5014 268.5,72C 271.548,72.6064 274.048,74.1064 276,76.5C 277.453,87.0631 277.953,97.7298 277.5,108.5C 273.217,109.011 269.217,108.344 265.5,106.5C 259.039,110.752 252.872,110.419 247,105.5C 244.441,98.5108 246.274,93.0108 252.5,89C 256.921,87.3728 261.421,86.2061 266,85.5C 266.976,81.4661 265.309,79.4661 261,79.5C 257.385,80.112 253.885,81.112 250.5,82.5C 249.034,79.9787 248.534,77.312 249,74.5C 251.87,73.3068 254.704,72.3068 257.5,71.5 Z M 263.5,92.5 C 264.5,92.5 265.5,92.5 266.5,92.5C 267.238,99.2114 264.405,101.545 258,99.5C 257.333,98.1667 257.333,96.8333 258,95.5C 259.876,94.3913 261.709,93.3913 263.5,92.5 Z"/></g>
<g><path style="opacity:0.898" fill="#e10612" d="M 367.5,71.5 C 383.657,70.3209 390.324,77.6542 387.5,93.5C 380.167,93.5 372.833,93.5 365.5,93.5C 365.799,96.6421 367.466,98.8088 370.5,100C 375.528,100.588 380.528,100.422 385.5,99.5C 385.813,102.247 385.48,104.914 384.5,107.5C 375.931,110.546 367.597,110.046 359.5,106C 354.961,102.057 352.961,97.0568 353.5,91C 353.391,80.9588 358.057,74.4588 367.5,71.5 Z M 369.5,79.5 C 375.334,78.3373 378,80.6706 377.5,86.5C 373.5,86.5 369.5,86.5 365.5,86.5C 365.571,83.3477 366.905,81.0144 369.5,79.5 Z"/></g>
<g><path style="opacity:0.904" fill="#e10612" d="M 434.5,71.5 C 441.229,70.6618 447.396,71.9951 453,75.5C 453.667,76.8333 454.333,78.1667 455,79.5C 455.667,88.5 455.667,97.5 455,106.5C 451.851,108.362 448.351,109.029 444.5,108.5C 444.649,107.448 444.483,106.448 444,105.5C 436.98,111.125 430.314,110.792 424,104.5C 421.937,96.4588 424.77,90.9588 432.5,88C 435.789,87.1184 439.123,86.4517 442.5,86C 444.917,84.3268 444.917,82.4935 442.5,80.5C 437.621,79.226 432.955,79.8927 428.5,82.5C 426.729,80.0718 425.896,77.4051 426,74.5C 428.949,73.5629 431.783,72.5629 434.5,71.5 Z M 440.5,92.5 C 441.833,92.5 443.167,92.5 444.5,92.5C 445.861,97.7677 443.861,100.434 438.5,100.5C 436.448,100.384 435.115,99.3838 434.5,97.5C 435.96,95.0275 437.96,93.3609 440.5,92.5 Z"/></g>
<g><path style="opacity:0.917" fill="#e10612" d="M 209.5,72.5 C 213.167,72.5 216.833,72.5 220.5,72.5C 220.539,84.5131 220.206,96.5131 219.5,108.5C 215.833,108.5 212.167,108.5 208.5,108.5C 208.833,96.5 209.167,84.5 209.5,72.5 Z"/></g>
<g><path style="opacity:0.908" fill="#004b8e" d="M 684.5,77.5 C 689.833,77.5 695.167,77.5 700.5,77.5C 700.5,102.5 700.5,127.5 700.5,152.5C 694.951,152.495 689.784,151.162 685,148.5C 684.5,124.836 684.333,101.169 684.5,77.5 Z"/></g>
<g><path style="opacity:0.923" fill="#d52631" d="M 703.5,93.5 C 719.736,100.275 727.069,112.608 725.5,130.5C 720.205,130.526 715.039,129.859 710,128.5C 710.564,121.855 708.564,116.189 704,111.5C 703.501,105.509 703.334,99.5092 703.5,93.5 Z"/></g>
<g><path style="opacity:0.912" fill="#004b8e" d="M 783.5,120.5 C 787.188,120.781 790.855,121.281 794.5,122C 798.704,122.553 801.204,124.72 802,128.5C 799.651,131.017 797.151,133.35 794.5,135.5C 790.95,132.72 786.95,131.886 782.5,133C 779.967,135.084 779.967,137.084 782.5,139C 788.012,139.695 793.346,141.028 798.5,143C 805.167,151 805.167,159 798.5,167C 790.606,171.528 782.273,172.528 773.5,170C 770.274,168.894 767.607,167.061 765.5,164.5C 767.833,161.5 770.5,158.833 773.5,156.5C 778.898,159.867 784.398,160.2 790,157.5C 790.72,155.888 790.554,154.388 789.5,153C 784.044,152.092 778.711,150.759 773.5,149C 766.96,142.861 765.793,135.695 770,127.5C 773.756,123.539 778.256,121.206 783.5,120.5 Z"/></g>
<g><path style="opacity:0.935" fill="#004b8e" d="M 963.5,120.5 C 973.56,119.937 980.393,124.271 984,133.5C 984.917,142.909 984.584,152.242 983,161.5C 975.431,171.766 965.931,173.933 954.5,168C 951.131,165.635 948.964,162.468 948,158.5C 947.083,149.091 947.416,139.758 949,130.5C 952.305,124.778 957.138,121.444 963.5,120.5 Z M 963.5,132.5 C 966.961,132.146 969.461,133.479 971,136.5C 971.667,143.167 971.667,149.833 971,156.5C 967.667,160.5 964.333,160.5 961,156.5C 959,149.5 959,142.5 961,135.5C 962.045,134.627 962.878,133.627 963.5,132.5 Z"/></g>
<g><path style="opacity:0.935" fill="#004b8e" d="M 1171.5,120.5 C 1181.56,119.937 1188.39,124.271 1192,133.5C 1192.92,142.909 1192.58,152.242 1191,161.5C 1183.43,171.766 1173.93,173.933 1162.5,168C 1159.13,165.635 1156.96,162.468 1156,158.5C 1155.08,149.091 1155.42,139.758 1157,130.5C 1160.3,124.778 1165.14,121.444 1171.5,120.5 Z M 1172.5,132.5 C 1175.1,132.549 1177.27,133.549 1179,135.5C 1179.21,139.089 1179.71,142.589 1180.5,146C 1179.71,149.411 1179.21,152.911 1179,156.5C 1175.67,160.5 1172.33,160.5 1169,156.5C 1167,149.5 1167,142.5 1169,135.5C 1170.15,134.364 1171.31,133.364 1172.5,132.5 Z"/></g>
<g><path style="opacity:0.938" fill="#004b8e" d="M 821.5,121.5 C 825.106,121.211 828.606,121.544 832,122.5C 837.833,138.167 843.667,153.833 849.5,169.5C 844.833,170.833 840.167,170.833 835.5,169.5C 834.907,167.618 834.24,165.785 833.5,164C 828.798,163.172 824.131,163.338 819.5,164.5C 818.833,166.167 818.167,167.833 817.5,169.5C 812.869,170.662 808.202,170.828 803.5,170C 809.602,153.86 815.602,137.693 821.5,121.5 Z M 826.5,142.5 C 828.277,145.505 829.277,148.838 829.5,152.5C 827.396,152.799 825.396,152.466 823.5,151.5C 824.705,148.55 825.705,145.55 826.5,142.5 Z"/></g>
<g><path style="opacity:0.944" fill="#004b8e" d="M 852.5,121.5 C 856.555,121.176 860.555,121.509 864.5,122.5C 869,129.5 873.5,136.5 878,143.5C 878.5,136.174 878.666,128.841 878.5,121.5C 882.833,121.5 887.167,121.5 891.5,121.5C 891.5,137.833 891.5,154.167 891.5,170.5C 887.486,170.666 883.486,170.499 879.5,170C 874.876,163.252 870.376,156.419 866,149.5C 865.5,156.492 865.334,163.492 865.5,170.5C 861.167,170.5 856.833,170.5 852.5,170.5C 852.5,154.167 852.5,137.833 852.5,121.5 Z"/></g>
<g><path style="opacity:0.957" fill="#004b8e" d="M 912.5,121.5 C 916.833,121.5 921.167,121.5 925.5,121.5C 925.5,134.167 925.5,146.833 925.5,159.5C 932.167,159.5 938.833,159.5 945.5,159.5C 945.5,163.167 945.5,166.833 945.5,170.5C 934.5,170.5 923.5,170.5 912.5,170.5C 912.5,154.167 912.5,137.833 912.5,121.5 Z"/></g>
<g><path style="opacity:0.939" fill="#004b8e" d="M 990.5,121.5 C 998.84,121.334 1007.17,121.5 1015.5,122C 1025.82,125.799 1029.32,132.966 1026,143.5C 1024.21,146.295 1022.04,148.795 1019.5,151C 1023.21,156.927 1026.55,163.094 1029.5,169.5C 1024.5,170.833 1019.5,170.833 1014.5,169.5C 1011.83,164.167 1009.17,158.833 1006.5,153.5C 1005.68,152.614 1004.68,152.281 1003.5,152.5C 1003.5,158.5 1003.5,164.5 1003.5,170.5C 999.167,170.5 994.833,170.5 990.5,170.5C 990.5,154.167 990.5,137.833 990.5,121.5 Z M 1003.5,133.5 C 1006.52,133.335 1009.52,133.502 1012.5,134C 1015.17,136.333 1015.17,138.667 1012.5,141C 1009.52,141.498 1006.52,141.665 1003.5,141.5C 1003.5,138.833 1003.5,136.167 1003.5,133.5 Z"/></g>
<g><path style="opacity:0.962" fill="#004b8e" d="M 1033.5,121.5 C 1044.83,121.5 1056.17,121.5 1067.5,121.5C 1067.5,125.167 1067.5,128.833 1067.5,132.5C 1060.5,132.5 1053.5,132.5 1046.5,132.5C 1046.5,135.167 1046.5,137.833 1046.5,140.5C 1052.5,140.5 1058.5,140.5 1064.5,140.5C 1064.5,144.167 1064.5,147.833 1064.5,151.5C 1058.5,151.5 1052.5,151.5 1046.5,151.5C 1046.5,154.167 1046.5,156.833 1046.5,159.5C 1053.5,159.5 1060.5,159.5 1067.5,159.5C 1067.5,163.167 1067.5,166.833 1067.5,170.5C 1056.17,170.5 1044.83,170.5 1033.5,170.5C 1033.5,154.167 1033.5,137.833 1033.5,121.5 Z"/></g>
<g><path style="opacity:0.936" fill="#004b8e" d="M 1073.5,121.5 C 1077.55,121.176 1081.55,121.509 1085.5,122.5C 1090,129.5 1094.5,136.5 1099,143.5C 1099.5,136.174 1099.67,128.841 1099.5,121.5C 1103.83,121.5 1108.17,121.5 1112.5,121.5C 1112.5,137.833 1112.5,154.167 1112.5,170.5C 1108.49,170.666 1104.49,170.499 1100.5,170C 1095.88,163.252 1091.38,156.419 1087,149.5C 1086.5,156.492 1086.33,163.492 1086.5,170.5C 1082.17,170.5 1077.83,170.5 1073.5,170.5C 1073.5,154.167 1073.5,137.833 1073.5,121.5 Z"/></g>
<g><path style="opacity:0.947" fill="#004b8e" d="M 1118.5,121.5 C 1129.5,121.5 1140.5,121.5 1151.5,121.5C 1151.67,125.182 1151.5,128.848 1151,132.5C 1145.29,141.419 1139.46,150.252 1133.5,159C 1139.49,159.499 1145.49,159.666 1151.5,159.5C 1151.5,163.167 1151.5,166.833 1151.5,170.5C 1140.17,170.5 1128.83,170.5 1117.5,170.5C 1117.33,167.15 1117.5,163.817 1118,160.5C 1123.83,151.5 1129.67,142.5 1135.5,133.5C 1129.87,132.505 1124.21,132.171 1118.5,132.5C 1118.5,128.833 1118.5,125.167 1118.5,121.5 Z"/></g>
<g><path style="opacity:0.938" fill="#e10612" d="M 34.5,131.5 C 43.995,131.782 53.3283,133.116 62.5,135.5C 63.2234,140.134 62.5567,144.634 60.5,149C 56.5129,148.676 52.5129,148.009 48.5,147C 43.1667,146.333 37.8333,146.333 32.5,147C 27.7673,149.922 27.4339,153.255 31.5,157C 40.3234,159.941 48.9901,163.274 57.5,167C 65.9548,175.095 67.7882,184.595 63,195.5C 56.0002,203.34 47.1669,207.006 36.5,206.5C 27.2569,206.283 18.2569,204.783 9.5,202C 10.4896,198.241 11.323,194.407 12,190.5C 12.3879,189.572 13.0546,188.905 14,188.5C 21.5591,190.482 29.2257,191.815 37,192.5C 40.3668,191.867 43.5334,190.7 46.5,189C 49.3343,184.64 48.3343,181.307 43.5,179C 34.7344,176.636 26.401,173.303 18.5,169C 11.861,162.544 9.6943,154.71 12,145.5C 13.8072,139.693 17.6405,135.859 23.5,134C 27.3121,133.205 30.9788,132.371 34.5,131.5 Z"/></g>
<g><path style="opacity:0.934" fill="#e10612" d="M 127.5,132.5 C 132.833,132.5 138.167,132.5 143.5,132.5C 143.333,152.503 143.5,172.503 144,192.5C 145.808,194.558 147.975,194.892 150.5,193.5C 150.5,197.5 150.5,201.5 150.5,205.5C 144.778,206.819 139.111,206.653 133.5,205C 130.337,203.52 128.504,201.02 128,197.5C 127.5,175.836 127.333,154.169 127.5,132.5 Z"/></g>
<g><path style="opacity:0.899" fill="#e10612" d="M 160.5,132.5 C 170.75,132.824 173.417,137.324 168.5,146C 163.317,148.305 158.484,147.805 154,144.5C 153.333,141.5 153.333,138.5 154,135.5C 156.166,134.269 158.333,133.269 160.5,132.5 Z"/></g>
<g><path style="opacity:0.939" fill="#e10612" d="M 209.5,132.5 C 214.833,132.5 220.167,132.5 225.5,132.5C 225.5,156.833 225.5,181.167 225.5,205.5C 220.786,205.827 216.12,205.493 211.5,204.5C 211.086,200.168 209.752,199.668 207.5,203C 191.374,209.687 181.208,204.52 177,187.5C 175.208,176.87 176.875,166.87 182,157.5C 190.077,149.607 198.911,148.607 208.5,154.5C 209.497,147.197 209.831,139.863 209.5,132.5 Z M 200.5,163.5 C 203.747,163.415 206.581,164.415 209,166.5C 209.667,174.5 209.667,182.5 209,190.5C 203.746,194.56 199.08,193.894 195,188.5C 193,181.833 193,175.167 195,168.5C 196.73,166.598 198.563,164.931 200.5,163.5 Z"/></g>
<g><path style="opacity:0.889" fill="#e10612" d="M 328.5,132.5 C 338.43,132.394 341.43,136.728 337.5,145.5C 332.256,148.385 327.256,148.051 322.5,144.5C 319.784,137.945 321.784,133.945 328.5,132.5 Z"/></g>
<g><path style="opacity:0.937" fill="#e10612" d="M 378.5,132.5 C 383.833,132.5 389.167,132.5 394.5,132.5C 394.5,156.833 394.5,181.167 394.5,205.5C 389.5,205.5 384.5,205.5 379.5,205.5C 379.778,203.654 379.111,202.32 377.5,201.5C 369.274,207.981 360.941,208.148 352.5,202C 347.004,195.208 344.338,187.375 344.5,178.5C 344.238,168.768 347.572,160.601 354.5,154C 362.731,148.941 370.565,149.441 378,155.5C 378.5,147.841 378.666,140.174 378.5,132.5 Z M 369.5,163.5 C 372.579,163.804 375.413,164.804 378,166.5C 378.667,174.5 378.667,182.5 378,190.5C 372.935,194.727 368.268,194.394 364,189.5C 360.667,182.167 360.667,174.833 364,167.5C 365.5,165.531 367.333,164.198 369.5,163.5 Z"/></g>
<g><path style="opacity:0.936" fill="#e10612" d="M 486.5,132.5 C 491.833,132.5 497.167,132.5 502.5,132.5C 502.5,156.833 502.5,181.167 502.5,205.5C 497.821,205.666 493.155,205.499 488.5,205C 487.929,203.795 487.262,202.628 486.5,201.5C 477.019,208.364 467.852,208.03 459,200.5C 450.862,186.711 450.529,172.711 458,158.5C 466.521,149.329 475.854,148.329 486,155.5C 486.5,147.841 486.666,140.174 486.5,132.5 Z M 477.5,163.5 C 480.579,163.804 483.413,164.804 486,166.5C 486.667,174.5 486.667,182.5 486,190.5C 481.667,194.5 477.333,194.5 473,190.5C 468.751,183.008 468.418,175.342 472,167.5C 473.5,165.531 475.333,164.198 477.5,163.5 Z"/></g>
<g><path style="opacity:0.937" fill="#e10612" d="M 90.5,150.5 C 110.355,149.357 120.688,158.691 121.5,178.5C 121.502,195.662 113.002,204.995 96,206.5C 82.7996,206.415 74.4663,200.082 71,187.5C 70.3333,181.5 70.3333,175.5 71,169.5C 73.4514,158.88 79.9514,152.547 90.5,150.5 Z M 92.5,162.5 C 99.4192,161.588 103.253,164.588 104,171.5C 104.804,177.569 104.471,183.569 103,189.5C 98.7481,195.653 94.0814,195.986 89,190.5C 86.1803,183.277 85.8469,175.944 88,168.5C 89.332,166.34 90.832,164.34 92.5,162.5 Z"/></g>
<g><path style="opacity:0.921" fill="#e10612" d="M 250.5,150.5 C 259.746,149.376 267.913,151.709 275,157.5C 276.562,159.957 277.562,162.624 278,165.5C 278.5,178.829 278.667,192.163 278.5,205.5C 273.5,205.5 268.5,205.5 263.5,205.5C 263.509,203.692 263.009,202.025 262,200.5C 252.633,208.399 243.3,208.399 234,200.5C 229.269,190.7 231.436,182.866 240.5,177C 247.525,173.911 254.858,172.077 262.5,171.5C 262.635,167.939 261.302,165.105 258.5,163C 251.233,161.78 244.4,162.947 238,166.5C 235.855,162.614 235.022,158.614 235.5,154.5C 240.58,152.982 245.58,151.649 250.5,150.5 Z M 261.5,180.5 C 264.916,190.512 261.249,194.678 250.5,193C 246.587,190.215 246.587,187.382 250.5,184.5C 254.139,182.735 257.806,181.401 261.5,180.5 Z"/></g>
<g><path style="opacity:0.954" fill="#e10612" d="M 314.5,150.5 C 315.833,150.5 317.167,150.5 318.5,150.5C 318.666,155.511 318.499,160.511 318,165.5C 312.338,166.083 307.005,167.749 302,170.5C 301.5,182.162 301.333,193.829 301.5,205.5C 296.5,205.5 291.5,205.5 286.5,205.5C 286.5,187.5 286.5,169.5 286.5,151.5C 291.167,151.5 295.833,151.5 300.5,151.5C 300.804,154.522 301.304,157.522 302,160.5C 304.887,155.434 309.054,152.101 314.5,150.5 Z"/></g>
<g><path style="opacity:0.929" fill="#e10612" d="M 419.5,150.5 C 425.659,150.216 431.659,151.049 437.5,153C 440.667,154.833 443.167,157.333 445,160.5C 446.451,175.428 446.951,190.428 446.5,205.5C 441.821,205.666 437.155,205.499 432.5,205C 431.773,203.601 431.273,202.101 431,200.5C 422.69,207.081 413.856,207.914 404.5,203C 396.73,190.149 399.73,180.815 413.5,175C 418.406,173.524 423.406,172.524 428.5,172C 431.305,168.362 430.638,165.362 426.5,163C 419.447,161.93 412.78,163.096 406.5,166.5C 405.016,162.905 403.683,159.238 402.5,155.5C 408.052,153.033 413.719,151.367 419.5,150.5 Z M 429.5,180.5 C 432.919,190.591 429.252,194.758 418.5,193C 415.33,188.546 416.33,185.213 421.5,183C 424.31,182.218 426.977,181.384 429.5,180.5 Z"/></g>
<g><path style="opacity:0.927" fill="#e10612" d="M 154.5,151.5 C 159.833,151.5 165.167,151.5 170.5,151.5C 170.5,169.5 170.5,187.5 170.5,205.5C 165.167,205.5 159.833,205.5 154.5,205.5C 154.5,187.5 154.5,169.5 154.5,151.5 Z"/></g>
<g><path style="opacity:0.912" fill="#e10612" d="M 322.5,151.5 C 327.833,151.5 333.167,151.5 338.5,151.5C 338.5,169.5 338.5,187.5 338.5,205.5C 333.167,205.5 327.833,205.5 322.5,205.5C 322.5,187.5 322.5,169.5 322.5,151.5 Z"/></g>
<g><path style="opacity:0.94" fill="#004b8e" d="M 732.5,167.5 C 752.657,166.484 761.491,175.817 759,195.5C 756.096,204.07 750.263,209.57 741.5,212C 719.836,212.5 698.169,212.667 676.5,212.5C 676.5,207.5 676.5,202.5 676.5,197.5C 679.167,197.5 681.833,197.5 684.5,197.5C 684.5,188.833 684.5,180.167 684.5,171.5C 689.773,172.601 695.106,173.267 700.5,173.5C 700.5,181.5 700.5,189.5 700.5,197.5C 713.574,197.943 726.574,197.443 739.5,196C 744.441,192.834 745.441,188.834 742.5,184C 740.635,182.699 738.635,182.365 736.5,183C 734.316,185.016 732.316,187.183 730.5,189.5C 725.963,187.07 721.63,184.403 717.5,181.5C 720.635,174.694 725.635,170.027 732.5,167.5 Z"/></g>
</svg>
